<?xml version="1.0" encoding="UTF-8" standalone="no"?>
<!DOCTYPE svg PUBLIC "-//W3C//DTD SVG 1.1//EN" "http://www.w3.org/Graphics/SVG/1.1/DTD/svg11.dtd">
<svg width="32.00" height="32.00" viewBox="0.00 0.00 32.00 32.00" xmlns="http://www.w3.org/2000/svg" xmlns:xlink="http://www.w3.org/1999/xlink">
<g stroke-linecap="round" id="レイヤー_3">
<path d="M17.72,11.59 C17.72,11.59 20.23,11.50 20.23,11.50 C20.23,11.50 22.95,11.50 22.95,11.50 C22.95,11.50 24.97,11.66 24.97,11.66" fill="none" stroke="rgb(231, 205, 255)" stroke-width="1.00" stroke-opacity="1.00" stroke-linejoin="round"/>
<path d="M17.94,12.56 C17.94,12.56 18.11,12.53 18.11,12.53 C18.11,12.53 22.98,12.41 22.98,12.41 C22.98,12.41 24.33,12.38 24.33,12.38 C24.33,12.38 27.08,12.47 27.08,12.47 C27.08,12.47 27.12,12.50 27.12,12.50" fill="none" stroke="rgb(231, 205, 255)" stroke-width="1.00" stroke-opacity="1.00" stroke-linejoin="round"/>
<path d="M27.12,13.45 C27.12,13.45 27.25,15.08 27.25,15.08 C27.25,15.08 26.94,16.17 26.94,16.17 C26.94,16.17 26.69,17.80 26.69,17.80 C26.69,17.80 26.56,18.86 26.56,18.86 C26.56,18.86 27.48,19.44 27.48,19.44 C27.48,19.44 28.00,18.48 28.00,18.48 C28.00,18.48 27.91,17.30 27.91,17.30 C27.91,17.30 28.16,16.05 28.16,16.05 C28.16,16.05 28.28,17.05 28.28,17.05 C28.28,17.05 27.66,18.05 27.66,18.05 C27.66,18.05 28.59,17.20 28.59,17.20" fill="none" stroke="rgb(231, 205, 255)" stroke-width="1.00" stroke-opacity="1.00" stroke-linejoin="round"/>
<path d="M26.59,20.19 C26.59,20.19 26.45,20.19 26.45,20.19 C26.45,20.19 25.33,20.41 25.33,20.41 C25.33,20.41 24.44,21.17 24.44,21.17 C24.44,21.17 23.45,21.56 23.45,21.56 C23.45,21.56 20.58,21.78 20.58,21.78 C20.58,21.78 17.98,21.72 17.98,21.72 C17.98,21.72 17.72,20.67 17.72,20.67 C17.72,20.67 17.78,19.20 17.78,19.20 C17.78,19.20 17.78,17.61 17.78,17.61 C17.78,17.61 17.59,16.48 17.59,16.48 C17.59,16.48 17.19,15.33 17.19,15.33 C17.19,15.33 17.55,13.62 17.55,13.62 C17.55,13.62 18.55,13.38 18.55,13.38 C18.55,13.38 20.73,13.38 20.73,13.38 C20.73,13.38 22.33,13.44 22.33,13.44 C22.33,13.44 24.77,13.41 24.77,13.41 C24.77,13.41 26.05,13.53 26.05,13.53 C26.05,13.53 26.84,14.42 26.84,14.42 C26.84,14.42 26.55,15.55 26.55,15.55 C26.55,15.55 24.98,16.06 24.98,16.06 C24.98,16.06 25.28,14.77 25.28,14.77 C25.28,14.77 24.30,14.38 24.30,14.38 C24.30,14.38 26.27,14.44 26.27,14.44 C26.27,14.44 22.08,14.53 22.08,14.53 C22.08,14.53 18.33,14.41 18.33,14.41 C18.33,14.41 18.41,15.70 18.41,15.70 C18.48,15.96 18.21,16.96 17.91,17.81 C17.84,17.99 17.81,18.16 17.81,18.17 C17.81,18.17 17.69,19.55 17.69,19.55 C17.69,19.55 18.48,20.59 18.48,20.59 C18.48,20.59 18.78,19.52 18.78,19.52 C18.78,19.52 18.92,17.95 18.92,17.95 C18.92,17.95 19.41,16.98 19.41,16.98 C19.41,16.98 19.55,15.75 19.55,15.75 C19.55,15.75 19.53,16.83 19.53,16.83 C19.53,16.83 19.38,18.52 19.38,18.52 C19.38,18.52 19.03,19.92 19.03,19.92 C19.03,19.92 20.25,20.58 20.25,20.58 C20.25,20.58 20.62,19.05 20.62,19.05 C20.62,19.05 20.69,17.80 20.69,17.80 C20.69,17.80 20.53,16.80 20.53,16.80 C20.53,16.80 20.44,15.42 20.44,15.42 C20.44,15.42 21.44,15.45 21.44,15.45 C21.44,15.45 22.25,16.23 22.25,16.23 C22.25,16.23 22.66,17.23 22.66,17.23 C22.66,17.23 22.16,18.17 22.16,18.17 C22.16,18.17 22.00,19.64 22.00,19.64 C22.00,19.64 21.09,20.33 21.09,20.33 C21.09,20.33 21.22,19.23 21.22,19.23 C21.22,19.23 21.56,18.20 21.56,18.20 C21.56,18.20 21.69,16.42 21.69,16.42 C21.69,16.42 22.14,15.41 22.14,15.41 C22.14,15.41 23.20,15.44 23.20,15.44 C23.20,15.44 23.28,18.30 23.28,18.30 C23.28,18.30 23.03,19.67 23.03,19.67 C23.03,19.67 23.36,20.69 23.36,20.69 C23.36,20.69 24.55,20.48 24.55,20.48 C24.55,20.48 24.66,19.39 24.66,19.39 C24.66,19.39 24.31,18.39 24.31,18.39 C24.31,18.39 24.44,17.23 24.44,17.23 C24.44,17.23 25.22,19.88 25.22,19.88" fill="none" stroke="rgb(231, 205, 255)" stroke-width="1.00" stroke-opacity="1.00" stroke-linejoin="round"/>
<path d="M19.88,15.44" fill="none" stroke="rgb(231, 205, 255)" stroke-width="1.00" stroke-opacity="1.00" stroke-linejoin="round"/>
<path d="M18.66,17.56" fill="none" stroke="rgb(231, 205, 255)" stroke-width="1.00" stroke-opacity="1.00" stroke-linejoin="round"/>
<path d="M25.75,16.66" fill="none" stroke="rgb(231, 205, 255)" stroke-width="1.00" stroke-opacity="1.00" stroke-linejoin="round"/>
<path d="M17.72,11.59 C17.72,11.59 20.23,11.50 20.23,11.50 C20.23,11.50 22.95,11.50 22.95,11.50 C22.95,11.50 24.97,11.66 24.97,11.66" fill="none" stroke="rgb(231, 205, 255)" stroke-width="1.00" stroke-opacity="1.00" stroke-linejoin="round"/>
<path d="M17.94,12.56 C17.94,12.56 18.11,12.53 18.11,12.53 C18.11,12.53 22.98,12.41 22.98,12.41 C22.98,12.41 24.33,12.38 24.33,12.38 C24.33,12.38 27.08,12.47 27.08,12.47 C27.08,12.47 27.12,12.50 27.12,12.50" fill="none" stroke="rgb(231, 205, 255)" stroke-width="1.00" stroke-opacity="1.00" stroke-linejoin="round"/>
<path d="M27.12,13.45 C27.12,13.45 27.25,15.08 27.25,15.08 C27.25,15.08 26.94,16.17 26.94,16.17 C26.94,16.17 26.69,17.80 26.69,17.80 C26.69,17.80 26.56,18.86 26.56,18.86 C26.56,18.86 27.48,19.44 27.48,19.44 C27.48,19.44 28.00,18.48 28.00,18.48 C28.00,18.48 27.91,17.30 27.91,17.30 C27.91,17.30 28.16,16.05 28.16,16.05 C28.16,16.05 28.28,17.05 28.28,17.05 C28.28,17.05 27.66,18.05 27.66,18.05 C27.66,18.05 28.59,17.20 28.59,17.20" fill="none" stroke="rgb(231, 205, 255)" stroke-width="1.00" stroke-opacity="1.00" stroke-linejoin="round"/>
<path d="M26.59,20.19 C26.59,20.19 26.45,20.19 26.45,20.19 C26.45,20.19 25.33,20.41 25.33,20.41 C25.33,20.41 24.44,21.17 24.44,21.17 C24.44,21.17 23.45,21.56 23.45,21.56 C23.45,21.56 20.58,21.78 20.58,21.78 C20.58,21.78 17.98,21.72 17.98,21.72 C17.98,21.72 17.72,20.67 17.72,20.67 C17.72,20.67 17.78,19.20 17.78,19.20 C17.78,19.20 17.78,17.61 17.78,17.61 C17.78,17.61 17.59,16.48 17.59,16.48 C17.59,16.48 17.19,15.33 17.19,15.33 C17.19,15.33 17.55,13.62 17.55,13.62 C17.55,13.62 18.55,13.38 18.55,13.38 C18.55,13.38 20.73,13.38 20.73,13.38 C20.73,13.38 22.33,13.44 22.33,13.44 C22.33,13.44 24.77,13.41 24.77,13.41 C24.77,13.41 26.05,13.53 26.05,13.53 C26.05,13.53 26.84,14.42 26.84,14.42 C26.84,14.42 26.55,15.55 26.55,15.55 C26.55,15.55 24.98,16.06 24.98,16.06 C24.98,16.06 25.28,14.77 25.28,14.77 C25.28,14.77 24.30,14.38 24.30,14.38 C24.30,14.38 26.27,14.44 26.27,14.44 C26.27,14.44 22.08,14.53 22.08,14.53 C22.08,14.53 18.33,14.41 18.33,14.41 C18.33,14.41 18.41,15.70 18.41,15.70 C18.48,15.96 18.21,16.96 17.91,17.81 C17.84,17.99 17.81,18.16 17.81,18.17 C17.81,18.17 17.69,19.55 17.69,19.55 C17.69,19.55 18.48,20.59 18.48,20.59 C18.48,20.59 18.78,19.52 18.78,19.52 C18.78,19.52 18.92,17.95 18.92,17.95 C18.92,17.95 19.41,16.98 19.41,16.98 C19.41,16.98 19.55,15.75 19.55,15.75 C19.55,15.75 19.53,16.83 19.53,16.83 C19.53,16.83 19.38,18.52 19.38,18.52 C19.38,18.52 19.03,19.92 19.03,19.92 C19.03,19.92 20.25,20.58 20.25,20.58 C20.25,20.58 20.62,19.05 20.62,19.05 C20.62,19.05 20.69,17.80 20.69,17.80 C20.69,17.80 20.53,16.80 20.53,16.80 C20.53,16.80 20.44,15.42 20.44,15.42 C20.44,15.42 21.44,15.45 21.44,15.45 C21.44,15.45 22.25,16.23 22.25,16.23 C22.25,16.23 22.66,17.23 22.66,17.23 C22.66,17.23 22.16,18.17 22.16,18.17 C22.16,18.17 22.00,19.64 22.00,19.64 C22.00,19.64 21.09,20.33 21.09,20.33 C21.09,20.33 21.22,19.23 21.22,19.23 C21.22,19.23 21.56,18.20 21.56,18.20 C21.56,18.20 21.69,16.42 21.69,16.42 C21.69,16.42 22.14,15.41 22.14,15.41 C22.14,15.41 23.20,15.44 23.20,15.44 C23.20,15.44 23.28,18.30 23.28,18.30 C23.28,18.30 23.03,19.67 23.03,19.67 C23.03,19.67 23.36,20.69 23.36,20.69 C23.36,20.69 24.55,20.48 24.55,20.48 C24.55,20.48 24.66,19.39 24.66,19.39 C24.66,19.39 24.31,18.39 24.31,18.39 C24.31,18.39 24.44,17.23 24.44,17.23 C24.44,17.23 25.22,19.88 25.22,19.88" fill="none" stroke="rgb(231, 205, 255)" stroke-width="1.00" stroke-opacity="1.00" stroke-linejoin="round"/>
<path d="M19.88,15.44" fill="none" stroke="rgb(231, 205, 255)" stroke-width="1.00" stroke-opacity="1.00" stroke-linejoin="round"/>
<path d="M18.66,17.56" fill="none" stroke="rgb(231, 205, 255)" stroke-width="1.00" stroke-opacity="1.00" stroke-linejoin="round"/>
<path d="M25.75,16.66" fill="none" stroke="rgb(231, 205, 255)" stroke-width="1.00" stroke-opacity="1.00" stroke-linejoin="round"/>
</g>
</svg>
