<svg viewBox="0 0 543 543" xmlns="http://www.w3.org/2000/svg" version="1.1"><path d="m85 170h16v16h-16z" fill="#a472da"></path><path d="m102 170h16v16h-16z" fill="#a472da"></path><path d="m119 170h16v16h-16z" fill="#a472da"></path><path d="m136 170h16v16h-16z" fill="#a472da"></path><path d="m153 170h16v16h-16z" fill="#a472da"></path><path d="m170 170h16v16h-16z" fill="#a472da"></path><path d="m187 170h16v16h-16z" fill="#a472da"></path><path d="m204 170h16v16h-16z" fill="#a472da"></path><path d="m221 170h16v16h-16z" fill="#a472da"></path><path d="m238 170h16v16h-16z" fill="#a472da"></path><path d="m255 170h16v16h-16z" fill="#a472da"></path><path d="m272 170h16v16h-16z" fill="#a472da"></path><path d="m289 170h16v16h-16z" fill="#a472da"></path><path d="m306 170h16v16h-16z" fill="#a472da"></path><path d="m323 170h16v16h-16z" fill="#a472da"></path><path d="m340 170h16v16h-16z" fill="#a472da"></path><path d="m357 170h16v16h-16z" fill="#a472da"></path><path d="m374 170h16v16h-16z" fill="#a472da"></path><path d="m391 170h16v16h-16z" fill="#a472da"></path><path d="m408 170h16v16h-16z" fill="#a472da"></path><path d="m425 170h16v16h-16z" fill="#a472da"></path><path d="m442 170h16v16h-16z" fill="#a472da"></path><path d="m68 187h16v16h-16z" fill="#a472da"></path><path d="m85 187h16v16h-16z" fill="#a472da"></path><path d="m102 187h16v16h-16z" fill="#a472da"></path><path d="m119 187h16v16h-16z" fill="rgba(255,255,255,.988)"></path><path d="m136 187h16v16h-16z" fill="rgba(255,255,255,.992)"></path><path d="m153 187h16v16h-16z" fill="#ffffff"></path><path d="m170 187h16v16h-16z" fill="#ffffff"></path><path d="m187 187h16v16h-16z" fill="#ffffff"></path><path d="m204 187h16v16h-16z" fill="#ffffff"></path><path d="m221 187h16v16h-16z" fill="#ffffff"></path><path d="m238 187h16v16h-16z" fill="#ffffff"></path><path d="m255 187h16v16h-16z" fill="#a472da"></path><path d="m272 187h16v16h-16z" fill="#a472da"></path><path d="m289 187h16v16h-16z" fill="#e7cdff"></path><path d="m306 187h16v16h-16z" fill="#e7cdff"></path><path d="m323 187h16v16h-16z" fill="#e7cdff"></path><path d="m340 187h16v16h-16z" fill="#e7cdff"></path><path d="m357 187h16v16h-16z" fill="#e7cdff"></path><path d="m374 187h16v16h-16z" fill="#e7cdff"></path><path d="m391 187h16v16h-16z" fill="#e7cdff"></path><path d="m408 187h16v16h-16z" fill="#e7cdff"></path><path d="m425 187h16v16h-16z" fill="rgba(164,114,218,.992)"></path><path d="m442 187h16v16h-16z" fill="#a472da"></path><path d="m459 187h16v16h-16z" fill="#a472da"></path><path d="m51 204h16v16h-16z" fill="#a472da"></path><path d="m68 204h16v16h-16z" fill="#a472da"></path><path d="m85 204h16v16h-16z" fill="#ffffff"></path><path d="m102 204h16v16h-16z" fill="#ffffff"></path><path d="m119 204h16v16h-16z" fill="#ffffff"></path><path d="m136 204h16v16h-16z" fill="#ffffff"></path><path d="m153 204h16v16h-16z" fill="#ffffff"></path><path d="m170 204h16v16h-16z" fill="#ffffff"></path><path d="m187 204h16v16h-16z" fill="#ffffff"></path><path d="m204 204h16v16h-16z" fill="#ffffff"></path><path d="m221 204h16v16h-16z" fill="#ffffff"></path><path d="m238 204h16v16h-16z" fill="#ffffff"></path><path d="m255 204h16v16h-16z" fill="#a472da"></path><path d="m272 204h16v16h-16z" fill="#a472da"></path><path d="m289 204h16v16h-16z" fill="#e7cdff"></path><path d="m306 204h16v16h-16z" fill="#e7cdff"></path><path d="m323 204h16v16h-16z" fill="#e7cdff"></path><path d="m340 204h16v16h-16z" fill="#e7cdff"></path><path d="m357 204h16v16h-16z" fill="#e7cdff"></path><path d="m374 204h16v16h-16z" fill="#e7cdff"></path><path d="m391 204h16v16h-16z" fill="#ffffff"></path><path d="m408 204h16v16h-16z" fill="#e7cdff"></path><path d="m425 204h16v16h-16z" fill="#e7cdff"></path><path d="m442 204h16v16h-16z" fill="rgba(231,205,255,.992)"></path><path d="m459 204h16v16h-16z" fill="#a472da"></path><path d="m476 204h16v16h-16z" fill="#a472da"></path><path d="m34 221h16v16h-16z" fill="#a472da"></path><path d="m51 221h16v16h-16z" fill="#a472da"></path><path d="m68 221h16v16h-16z" fill="#ffffff"></path><path d="m85 221h16v16h-16z" fill="#ffffff"></path><path d="m102 221h16v16h-16z" fill="#ffffff"></path><path d="m119 221h16v16h-16z" fill="#ffffff"></path><path d="m136 221h16v16h-16z" fill="#ffffff"></path><path d="m153 221h16v16h-16z" fill="#ffffff"></path><path d="m170 221h16v16h-16z" fill="#ffffff"></path><path d="m187 221h16v16h-16z" fill="#ffffff"></path><path d="m204 221h16v16h-16z" fill="#ffffff"></path><path d="m221 221h16v16h-16z" fill="#ffffff"></path><path d="m238 221h16v16h-16z" fill="#ffffff"></path><path d="m255 221h16v16h-16z" fill="#a472da"></path><path d="m272 221h16v16h-16z" fill="#a472da"></path><path d="m289 221h16v16h-16z" fill="#e7cdff"></path><path d="m306 221h16v16h-16z" fill="#e7cdff"></path><path d="m323 221h16v16h-16z" fill="#e7cdff"></path><path d="m340 221h16v16h-16z" fill="#e7cdff"></path><path d="m357 221h16v16h-16z" fill="#e7cdff"></path><path d="m374 221h16v16h-16z" fill="#fffeff"></path><path d="m391 221h16v16h-16z" fill="#ffffff"></path><path d="m408 221h16v16h-16z" fill="#ffffff"></path><path d="m425 221h16v16h-16z" fill="#e7cdff"></path><path d="m442 221h16v16h-16z" fill="#e7cdff"></path><path d="m459 221h16v16h-16z" fill="rgba(231,205,255,.992)"></path><path d="m476 221h16v16h-16z" fill="#a472da"></path><path d="m493 221h16v16h-16z" fill="#a472da"></path><path d="m34 238h16v16h-16z" fill="#a472da"></path><path d="m51 238h16v16h-16z" fill="#a472da"></path><path d="m68 238h16v16h-16z" fill="#ffffff"></path><path d="m85 238h16v16h-16z" fill="#ffffff"></path><path d="m102 238h16v16h-16z" fill="#ffffff"></path><path d="m119 238h16v16h-16z" fill="#ffffff"></path><path d="m136 238h16v16h-16z" fill="#ffffff"></path><path d="m153 238h16v16h-16z" fill="#ffffff"></path><path d="m170 238h16v16h-16z" fill="#ffffff"></path><path d="m187 238h16v16h-16z" fill="#ffffff"></path><path d="m204 238h16v16h-16z" fill="#ffffff"></path><path d="m221 238h16v16h-16z" fill="#ffffff"></path><path d="m238 238h16v16h-16z" fill="#ffffff"></path><path d="m255 238h16v16h-16z" fill="#a472da"></path><path d="m272 238h16v16h-16z" fill="#a472da"></path><path d="m289 238h16v16h-16z" fill="#e7cdff"></path><path d="m306 238h16v16h-16z" fill="#e7cdff"></path><path d="m323 238h16v16h-16z" fill="#e7cdff"></path><path d="m340 238h16v16h-16z" fill="#e7cdff"></path><path d="m357 238h16v16h-16z" fill="#e7cdff"></path><path d="m374 238h16v16h-16z" fill="#e7cdff"></path><path d="m391 238h16v16h-16z" fill="#fcf9ff"></path><path d="m408 238h16v16h-16z" fill="#e7cdff"></path><path d="m425 238h16v16h-16z" fill="#e7cdff"></path><path d="m442 238h16v16h-16z" fill="#e7cdff"></path><path d="m459 238h16v16h-16z" fill="#e7cdff"></path><path d="m476 238h16v16h-16z" fill="#a472da"></path><path d="m493 238h16v16h-16z" fill="rgba(164,114,218,.992)"></path><path d="m34 255h16v16h-16z" fill="#a472da"></path><path d="m51 255h16v16h-16z" fill="rgba(255,255,255,.965)"></path><path d="m68 255h16v16h-16z" fill="#ffffff"></path><path d="m85 255h16v16h-16z" fill="#ffffff"></path><path d="m102 255h16v16h-16z" fill="#ffffff"></path><path d="m119 255h16v16h-16z" fill="#ffffff"></path><path d="m136 255h16v16h-16z" fill="#ffffff"></path><path d="m153 255h16v16h-16z" fill="#ffffff"></path><path d="m170 255h16v16h-16z" fill="#ffffff"></path><path d="m187 255h16v16h-16z" fill="#ffffff"></path><path d="m204 255h16v16h-16z" fill="#ffffff"></path><path d="m221 255h16v16h-16z" fill="#ffffff"></path><path d="m238 255h16v16h-16z" fill="#ffffff"></path><path d="m255 255h16v16h-16z" fill="#a472da"></path><path d="m272 255h16v16h-16z" fill="#a472da"></path><path d="m289 255h16v16h-16z" fill="#e7cdff"></path><path d="m306 255h16v16h-16z" fill="#e7cdff"></path><path d="m323 255h16v16h-16z" fill="#e7cdff"></path><path d="m340 255h16v16h-16z" fill="#e7cdff"></path><path d="m357 255h16v16h-16z" fill="#e7cdff"></path><path d="m374 255h16v16h-16z" fill="#e7cdff"></path><path d="m391 255h16v16h-16z" fill="#e7cdff"></path><path d="m408 255h16v16h-16z" fill="#e7cdff"></path><path d="m425 255h16v16h-16z" fill="#e7cdff"></path><path d="m442 255h16v16h-16z" fill="#e7cdff"></path><path d="m459 255h16v16h-16z" fill="#e7cdff"></path><path d="m476 255h16v16h-16z" fill="#e7cdff"></path><path d="m493 255h16v16h-16z" fill="#a472da"></path><path d="m34 272h16v16h-16z" fill="#a472da"></path><path d="m51 272h16v16h-16z" fill="#ffffff"></path><path d="m68 272h16v16h-16z" fill="#ffffff"></path><path d="m85 272h16v16h-16z" fill="#ffffff"></path><path d="m102 272h16v16h-16z" fill="#ffffff"></path><path d="m119 272h16v16h-16z" fill="#ffffff"></path><path d="m136 272h16v16h-16z" fill="#ffffff"></path><path d="m153 272h16v16h-16z" fill="#ffffff"></path><path d="m170 272h16v16h-16z" fill="#ffffff"></path><path d="m187 272h16v16h-16z" fill="#ffffff"></path><path d="m204 272h16v16h-16z" fill="#ffffff"></path><path d="m221 272h16v16h-16z" fill="#ffffff"></path><path d="m238 272h16v16h-16z" fill="#ffffff"></path><path d="m255 272h16v16h-16z" fill="#a472da"></path><path d="m272 272h16v16h-16z" fill="#a675da"></path><path d="m289 272h16v16h-16z" fill="#e7cdff"></path><path d="m306 272h16v16h-16z" fill="#e7cdff"></path><path d="m323 272h16v16h-16z" fill="#e7cdff"></path><path d="m340 272h16v16h-16z" fill="#e7cdff"></path><path d="m357 272h16v16h-16z" fill="#e7cdff"></path><path d="m374 272h16v16h-16z" fill="#e7cdff"></path><path d="m391 272h16v16h-16z" fill="#e7cdff"></path><path d="m408 272h16v16h-16z" fill="#e7cdff"></path><path d="m425 272h16v16h-16z" fill="#e7cdff"></path><path d="m442 272h16v16h-16z" fill="#e7cdff"></path><path d="m459 272h16v16h-16z" fill="#e7cdff"></path><path d="m476 272h16v16h-16z" fill="rgba(231,205,255,.992)"></path><path d="m493 272h16v16h-16z" fill="#a472da"></path><path d="m34 289h16v16h-16z" fill="#a472da"></path><path d="m51 289h16v16h-16z" fill="#fffeff"></path><path d="m68 289h16v16h-16z" fill="#ffffff"></path><path d="m85 289h16v16h-16z" fill="#ffffff"></path><path d="m102 289h16v16h-16z" fill="#ffffff"></path><path d="m119 289h16v16h-16z" fill="#ffffff"></path><path d="m136 289h16v16h-16z" fill="#ffffff"></path><path d="m153 289h16v16h-16z" fill="#ffffff"></path><path d="m170 289h16v16h-16z" fill="#ffffff"></path><path d="m187 289h16v16h-16z" fill="#ffffff"></path><path d="m204 289h16v16h-16z" fill="#ffffff"></path><path d="m221 289h16v16h-16z" fill="#ffffff"></path><path d="m238 289h16v16h-16z" fill="#ffffff"></path><path d="m255 289h16v16h-16z" fill="#a472da"></path><path d="m272 289h16v16h-16z" fill="#a675da"></path><path d="m289 289h16v16h-16z" fill="#e7cdff"></path><path d="m306 289h16v16h-16z" fill="#e7cdff"></path><path d="m323 289h16v16h-16z" fill="#e7cdff"></path><path d="m340 289h16v16h-16z" fill="#e7cdff"></path><path d="m357 289h16v16h-16z" fill="#e7cdff"></path><path d="m374 289h16v16h-16z" fill="#e7cdff"></path><path d="m391 289h16v16h-16z" fill="#e7cdff"></path><path d="m408 289h16v16h-16z" fill="#e7cdff"></path><path d="m425 289h16v16h-16z" fill="#e7cdff"></path><path d="m442 289h16v16h-16z" fill="#e7cdff"></path><path d="m459 289h16v16h-16z" fill="#e7cdff"></path><path d="m476 289h16v16h-16z" fill="rgba(231,205,255,.977)"></path><path d="m493 289h16v16h-16z" fill="#a472da"></path><path d="m34 306h16v16h-16z" fill="#a472da"></path><path d="m51 306h16v16h-16z" fill="rgba(164,114,218,.992)"></path><path d="m68 306h16v16h-16z" fill="#ffffff"></path><path d="m85 306h16v16h-16z" fill="#ffffff"></path><path d="m102 306h16v16h-16z" fill="#ffffff"></path><path d="m119 306h16v16h-16z" fill="#ffffff"></path><path d="m136 306h16v16h-16z" fill="#ffffff"></path><path d="m153 306h16v16h-16z" fill="#ffffff"></path><path d="m170 306h16v16h-16z" fill="#ffffff"></path><path d="m187 306h16v16h-16z" fill="#ffffff"></path><path d="m204 306h16v16h-16z" fill="#ffffff"></path><path d="m221 306h16v16h-16z" fill="#ffffff"></path><path d="m238 306h16v16h-16z" fill="#ffffff"></path><path d="m255 306h16v16h-16z" fill="#a472da"></path><path d="m272 306h16v16h-16z" fill="#a675da"></path><path d="m289 306h16v16h-16z" fill="#e7cdff"></path><path d="m306 306h16v16h-16z" fill="#e7cdff"></path><path d="m323 306h16v16h-16z" fill="#e7cdff"></path><path d="m340 306h16v16h-16z" fill="#e7cdff"></path><path d="m357 306h16v16h-16z" fill="#e7cdff"></path><path d="m374 306h16v16h-16z" fill="#e7cdff"></path><path d="m391 306h16v16h-16z" fill="#e7cdff"></path><path d="m408 306h16v16h-16z" fill="#e7cdff"></path><path d="m425 306h16v16h-16z" fill="#e7cdff"></path><path d="m442 306h16v16h-16z" fill="#e7cdff"></path><path d="m459 306h16v16h-16z" fill="#e7cdff"></path><path d="m476 306h16v16h-16z" fill="#a472da"></path><path d="m493 306h16v16h-16z" fill="rgba(164,114,218,.992)"></path><path d="m34 323h16v16h-16z" fill="#a472da"></path><path d="m51 323h16v16h-16z" fill="#a472da"></path><path d="m68 323h16v16h-16z" fill="rgba(255,255,255,.992)"></path><path d="m85 323h16v16h-16z" fill="#ffffff"></path><path d="m102 323h16v16h-16z" fill="#ffffff"></path><path d="m119 323h16v16h-16z" fill="#ffffff"></path><path d="m136 323h16v16h-16z" fill="#ffffff"></path><path d="m153 323h16v16h-16z" fill="#ffffff"></path><path d="m170 323h16v16h-16z" fill="#ffffff"></path><path d="m187 323h16v16h-16z" fill="#ffffff"></path><path d="m204 323h16v16h-16z" fill="#ffffff"></path><path d="m221 323h16v16h-16z" fill="#ffffff"></path><path d="m238 323h16v16h-16z" fill="#ffffff"></path><path d="m255 323h16v16h-16z" fill="#a472da"></path><path d="m272 323h16v16h-16z" fill="#a472da"></path><path d="m289 323h16v16h-16z" fill="#e7cdff"></path><path d="m306 323h16v16h-16z" fill="#e7cdff"></path><path d="m323 323h16v16h-16z" fill="#e7cdff"></path><path d="m340 323h16v16h-16z" fill="#e7cdff"></path><path d="m357 323h16v16h-16z" fill="#e7cdff"></path><path d="m374 323h16v16h-16z" fill="#e7cdff"></path><path d="m391 323h16v16h-16z" fill="#e7cdff"></path><path d="m408 323h16v16h-16z" fill="#e7cdff"></path><path d="m425 323h16v16h-16z" fill="#e7cdff"></path><path d="m442 323h16v16h-16z" fill="#e7cdff"></path><path d="m459 323h16v16h-16z" fill="rgba(231,205,255,.992)"></path><path d="m476 323h16v16h-16z" fill="#a472da"></path><path d="m493 323h16v16h-16z" fill="rgba(164,114,218,.988)"></path><path d="m51 340h16v16h-16z" fill="#a472da"></path><path d="m68 340h16v16h-16z" fill="#a472da"></path><path d="m85 340h16v16h-16z" fill="rgba(255,255,255,.992)"></path><path d="m102 340h16v16h-16z" fill="#ffffff"></path><path d="m119 340h16v16h-16z" fill="#ffffff"></path><path d="m136 340h16v16h-16z" fill="#ffffff"></path><path d="m153 340h16v16h-16z" fill="#ffffff"></path><path d="m170 340h16v16h-16z" fill="#ffffff"></path><path d="m187 340h16v16h-16z" fill="#ffffff"></path><path d="m204 340h16v16h-16z" fill="#ffffff"></path><path d="m221 340h16v16h-16z" fill="#ffffff"></path><path d="m238 340h16v16h-16z" fill="#ffffff"></path><path d="m255 340h16v16h-16z" fill="#a472da"></path><path d="m272 340h16v16h-16z" fill="#a472da"></path><path d="m289 340h16v16h-16z" fill="#e7cdff"></path><path d="m306 340h16v16h-16z" fill="#e7cdff"></path><path d="m323 340h16v16h-16z" fill="#e7cdff"></path><path d="m340 340h16v16h-16z" fill="#e7cdff"></path><path d="m357 340h16v16h-16z" fill="#e7cdff"></path><path d="m374 340h16v16h-16z" fill="#e7cdff"></path><path d="m391 340h16v16h-16z" fill="#e7cdff"></path><path d="m408 340h16v16h-16z" fill="#e7cdff"></path><path d="m425 340h16v16h-16z" fill="#e7cdff"></path><path d="m442 340h16v16h-16z" fill="rgba(231,205,255,.992)"></path><path d="m459 340h16v16h-16z" fill="#a472da"></path><path d="m476 340h16v16h-16z" fill="#a472da"></path><path d="m51 357h16v16h-16z" fill="#a472da"></path><path d="m68 357h16v16h-16z" fill="#a472da"></path><path d="m85 357h16v16h-16z" fill="#a472da"></path><path d="m102 357h16v16h-16z" fill="rgba(164,114,218,.992)"></path><path d="m119 357h16v16h-16z" fill="#ffffff"></path><path d="m136 357h16v16h-16z" fill="#ffffff"></path><path d="m153 357h16v16h-16z" fill="#ffffff"></path><path d="m170 357h16v16h-16z" fill="#ffffff"></path><path d="m187 357h16v16h-16z" fill="rgba(255,255,255,.988)"></path><path d="m204 357h16v16h-16z" fill="#ffffff"></path><path d="m221 357h16v16h-16z" fill="#ffffff"></path><path d="m238 357h16v16h-16z" fill="#ffffff"></path><path d="m255 357h16v16h-16z" fill="#a472da"></path><path d="m272 357h16v16h-16z" fill="#a473da"></path><path d="m289 357h16v16h-16z" fill="#e7cdff"></path><path d="m306 357h16v16h-16z" fill="#e7cdff"></path><path d="m323 357h16v16h-16z" fill="#e7cdff"></path><path d="m340 357h16v16h-16z" fill="#e7cdff"></path><path d="m357 357h16v16h-16z" fill="#e7cdff"></path><path d="m374 357h16v16h-16z" fill="#e7cdff"></path><path d="m391 357h16v16h-16z" fill="#e7cdff"></path><path d="m408 357h16v16h-16z" fill="#e7cdff"></path><path d="m425 357h16v16h-16z" fill="rgba(164,114,218,.992)"></path><path d="m442 357h16v16h-16z" fill="#a472da"></path><path d="m459 357h16v16h-16z" fill="#a472da"></path><path d="m85 374h16v16h-16z" fill="rgba(164,114,218,.992)"></path><path d="m102 374h16v16h-16z" fill="#a472da"></path><path d="m119 374h16v16h-16z" fill="#a472da"></path><path d="m136 374h16v16h-16z" fill="#a472da"></path><path d="m153 374h16v16h-16z" fill="#a472da"></path><path d="m170 374h16v16h-16z" fill="#a472da"></path><path d="m187 374h16v16h-16z" fill="#a472da"></path><path d="m204 374h16v16h-16z" fill="#a472da"></path><path d="m221 374h16v16h-16z" fill="#a472da"></path><path d="m238 374h16v16h-16z" fill="#a472da"></path><path d="m255 374h16v16h-16z" fill="#a472da"></path><path d="m272 374h16v16h-16z" fill="#a472da"></path><path d="m289 374h16v16h-16z" fill="#a472da"></path><path d="m306 374h16v16h-16z" fill="#a472da"></path><path d="m323 374h16v16h-16z" fill="#a472da"></path><path d="m340 374h16v16h-16z" fill="#a472da"></path><path d="m357 374h16v16h-16z" fill="#a472da"></path><path d="m374 374h16v16h-16z" fill="#a472da"></path><path d="m391 374h16v16h-16z" fill="#a472da"></path><path d="m408 374h16v16h-16z" fill="#a472da"></path><path d="m425 374h16v16h-16z" fill="#a472da"></path><path d="m442 374h16v16h-16z" fill="rgba(164,114,218,.992)"></path></svg>